# xmcd
# 
# Track frame offsets:
#     150
#     12615
#     23639
#     34482
#     45661
#     57736
#     68771
#     82008
#     94306
#     105186
#     116821
#     129121
#     141071
#     153488
#     163389
#     175702
#     189187
#     200872
#     214122
#     225902
# 
# Disc length: 3161
# 
# Revision: 0
# Processed by: cddbd v1.5.2PL0 Copyright (c) Steve Scherf et al.
# Submitted via: fre:ac v1.1beta1pre3
# 
DISCID=160c5714
DTITLE=Hank Williams - Your Cheatin' Heart Signature Series
DYEAR=4050
DGENRE=Country
TTITLE0=Lovesick Blues
TTITLE1=Why Don't You Love Me?
TTITLE2=I Can't Help It (If I'm Still In Love With You
TTITLE3=Crazy Heart
TTITLE4=Long Gone Lonesome Blues
TTITLE5=I'll Never Get Out Of This World Alive
TTITLE6=Jambalaya (On The Bayou)
TTITLE7=Never Again
TTITLE8=Moanin' The Blues
TTITLE9=Kaw-Liga
TTITLE10=Your Cheatin' Heart
TTITLE11=Take These Chains From My Heart
TTITLE12=Cold, Cold Heart
TTITLE13=Honky Tonk Blues
TTITLE14=Half As Much
TTITLE15=Hey, Good Lookin'
TTITLE16=My Bucket's Got A Hole In It
TTITLE17=Wedding Bells
TTITLE18=Settin' The World On Fire
TTITLE19=Nobody's Lonesome For Me
EXTD=
EXTT0=
EXTT1=
EXTT2=
EXTT3=
EXTT4=
EXTT5=
EXTT6=
EXTT7=
EXTT8=
EXTT9=
EXTT10=
EXTT11=
EXTT12=
EXTT13=
EXTT14=
EXTT15=
EXTT16=
EXTT17=
EXTT18=
EXTT19=
PLAYORDER=
